<svg width="27" height="30" viewBox="0 0 27 30" fill="none" xmlns="http://www.w3.org/2000/svg">
<path d="M0.986328 0.321123V22.1679C0.98632 22.2106 0.994799 22.2529 1.01126 22.2923C1.02773 22.3317 1.05185 22.3674 1.08222 22.3973C1.11259 22.4272 1.1486 22.4507 1.18814 22.4665C1.22768 22.4822 1.26996 22.4899 1.3125 22.4891H16.7471C16.8101 22.4902 16.8714 22.5095 16.9236 22.5448C16.9759 22.5801 17.0169 22.6298 17.0416 22.6879C17.0663 22.746 17.0738 22.8101 17.063 22.8724C17.0522 22.9347 17.0237 22.9925 16.981 23.0388L10.5991 29.444C10.5415 29.497 10.5052 29.5694 10.4971 29.6474C10.489 29.7253 10.5096 29.8036 10.555 29.8674C10.6004 29.9312 10.6675 29.9762 10.7437 29.9938C10.8198 30.0113 10.8997 30.0004 10.9684 29.9629L26.8153 22.31C26.8699 22.2836 26.9161 22.2425 26.9487 22.1912C26.9813 22.1399 26.9991 22.0805 26.9999 22.0197V0.321123C26.9999 0.27842 26.9914 0.236143 26.975 0.196767C26.9585 0.157391 26.9344 0.121706 26.904 0.0917985C26.8736 0.0618915 26.8376 0.0383633 26.7981 0.0225903C26.7586 0.00681726 26.7163 -0.000883892 26.6737 -6.26696e-05H1.3125C1.26996 -0.000883892 1.22768 0.00681726 1.18814 0.0225903C1.1486 0.0383633 1.11259 0.0618915 1.08222 0.0917985C1.05185 0.121706 1.02773 0.157391 1.01126 0.196767C0.994799 0.236143 0.98632 0.27842 0.986328 0.321123Z" fill="#C7E9F4"/>
</svg>
