<svg width="53" height="47" viewBox="0 0 53 47" fill="none" xmlns="http://www.w3.org/2000/svg">
<path d="M8 16.2172C8 11.2525 11.6424 7.03952 16.555 6.32213L41.555 2.67133C47.589 1.79017 53 6.46836 53 12.5664V35.4336C53 41.5316 47.589 46.2098 41.555 45.3287L16.555 41.6779C11.6424 40.9605 8 36.7475 8 31.7828V16.2172Z" fill="url(#paint0_linear_605_2929)"/>
<path d="M27.3288 8.91568C27.2926 8.84156 27.2421 8.77531 27.1803 8.72081C27.1184 8.66625 27.0464 8.62456 26.9683 8.59799C26.8903 8.57143 26.8077 8.56056 26.7254 8.56606C26.6431 8.57156 26.5628 8.59325 26.4889 8.62993C26.415 8.66668 26.3492 8.71762 26.2951 8.77987C26.241 8.84212 26.1998 8.9145 26.1738 8.99275C26.1479 9.071 26.1376 9.15368 26.1438 9.23587C26.1498 9.31812 26.1721 9.39837 26.2094 9.47193C27.0638 11.1892 27.5057 13.0821 27.5 15.0001C27.5 17.4723 26.7669 19.8891 25.3934 21.9447C24.0199 24.0003 22.0676 25.6024 19.7836 26.5486C17.4994 27.4946 14.9861 27.7422 12.5614 27.2599C10.1366 26.7776 7.90932 25.5871 6.16117 23.8389C4.41302 22.0907 3.22251 19.8634 2.74019 17.4387C2.25787 15.0139 2.50542 12.5006 3.45151 10.2165C4.3976 7.93243 5.99976 5.98021 8.05538 4.60669C10.111 3.23317 12.5278 2.50006 15 2.50006C16.9182 2.49441 18.8113 2.93633 20.5288 3.79068C20.6026 3.83015 20.6836 3.85438 20.7669 3.86196C20.8503 3.86953 20.9343 3.8603 21.0139 3.83478C21.0937 3.80927 21.1674 3.76801 21.2309 3.71345C21.2944 3.65889 21.3463 3.59214 21.3834 3.51716C21.4206 3.44218 21.4423 3.36049 21.4473 3.27695C21.4523 3.19341 21.4405 3.10971 21.4126 3.03082C21.3846 2.95193 21.3411 2.87946 21.2846 2.8177C21.2281 2.75595 21.1598 2.70616 21.0838 2.67131C19.1941 1.73057 17.1109 1.24391 15 1.25006C12.2805 1.25006 9.62207 2.05648 7.36094 3.56735C5.09974 5.07822 3.33737 7.22568 2.29666 9.73818C1.25596 12.2506 0.983661 15.0153 1.51421 17.6826C2.04476 20.3498 3.35432 22.7998 5.27729 24.7228C7.20026 26.6457 9.65026 27.9553 12.3175 28.4859C14.9848 29.0164 17.7494 28.7441 20.2619 27.7034C22.7744 26.6627 24.9218 24.9003 26.4327 22.6391C27.9436 20.378 28.75 17.7196 28.75 15.0001C28.7558 12.889 28.2691 10.8057 27.3288 8.91568Z" fill="#197E9F"/>
<path d="M20.1615 7.15333C20.2022 7.08196 20.2283 7.00333 20.2385 6.92183C20.2487 6.8404 20.2427 6.75771 20.221 6.67852C20.1992 6.59933 20.162 6.52527 20.1117 6.46046C20.0612 6.39565 19.9985 6.3414 19.9272 6.30083C17.8215 5.1079 15.3549 4.7187 12.9843 5.20535C10.6137 5.692 8.49979 7.02152 7.03448 8.94752C5.56915 10.8735 4.85167 13.2654 5.01501 15.68C5.17836 18.0945 6.21144 20.368 7.92279 22.0791C9.63417 23.7901 11.9079 24.8228 14.3224 24.9858C16.737 25.1487 19.1287 24.4309 21.0545 22.9652C22.9802 21.4996 24.3094 19.3855 24.7957 17.0148C25.2819 14.6441 24.8924 12.1775 23.699 10.0721C23.6155 9.93115 23.48 9.82858 23.3216 9.78658C23.1632 9.74458 22.9947 9.76646 22.8522 9.84746C22.7099 9.92852 22.6049 10.0623 22.5602 10.2199C22.5154 10.3775 22.5343 10.5464 22.6128 10.6902C23.6559 12.5332 23.9957 14.6918 23.569 16.7661C23.1424 18.8405 21.9783 20.6898 20.2924 21.9715C18.6066 23.2531 16.5133 23.8803 14.4005 23.7366C12.2876 23.5931 10.2984 22.6884 8.80154 21.1904C7.30467 19.6923 6.40148 17.7025 6.25948 15.5895C6.11747 13.4766 6.74617 11.3838 8.02917 9.6989C9.31211 8.01402 11.1623 6.85133 13.237 6.42627C15.3116 6.00117 17.47 6.34252 19.3122 7.38708C19.4559 7.46815 19.6259 7.48908 19.785 7.44527C19.9442 7.40152 20.0795 7.29652 20.1615 7.15333Z" fill="#197E9F"/>
<path d="M17.0506 9.76191C17.1272 9.79422 17.2096 9.81097 17.2927 9.81103C17.3759 9.81116 17.4582 9.79472 17.5349 9.76259C17.6117 9.73047 17.6812 9.68334 17.7395 9.62403C17.7977 9.56472 17.8436 9.49434 17.8743 9.41703C17.9051 9.33978 17.9201 9.25716 17.9185 9.17397C17.9169 9.09084 17.8987 9.00884 17.865 8.93284C17.8312 8.85678 17.7827 8.78822 17.7222 8.73122C17.6617 8.67416 17.5904 8.62978 17.5125 8.60066C16.7129 8.28384 15.8601 8.12241 15 8.12503C13.6402 8.12503 12.3111 8.52822 11.1804 9.28366C10.0499 10.0391 9.16869 11.1128 8.64831 12.3691C8.128 13.6253 7.99181 15.0077 8.25712 16.3413C8.52237 17.6749 9.17712 18.8999 10.1386 19.8614C11.1001 20.8228 12.3251 21.4777 13.6587 21.7429C14.9924 22.0082 16.3747 21.872 17.6309 21.3517C18.8872 20.8313 19.9609 19.9502 20.7164 18.8196C21.4718 17.689 21.875 16.3598 21.875 15C21.8778 14.1398 21.7161 13.287 21.3987 12.4875C21.3702 12.4088 21.3261 12.3367 21.2692 12.2753C21.2122 12.2139 21.1435 12.1647 21.0671 12.1303C20.9907 12.096 20.9082 12.0775 20.8245 12.0757C20.7408 12.0739 20.6576 12.089 20.5798 12.1199C20.502 12.1509 20.4312 12.1972 20.3717 12.2561C20.3122 12.315 20.2651 12.3852 20.2332 12.4627C20.2013 12.5401 20.1854 12.6231 20.1862 12.7068C20.1871 12.7905 20.2047 12.8733 20.2381 12.95C20.4964 13.6025 20.6277 14.2983 20.625 15C20.625 16.1125 20.2951 17.2001 19.677 18.1251C19.0589 19.0502 18.1804 19.7711 17.1526 20.1968C16.1247 20.6226 14.9937 20.734 13.9026 20.517C12.8115 20.2999 11.8092 19.7642 11.0225 18.9775C10.2359 18.1908 9.70012 17.1885 9.48306 16.0974C9.26606 15.0063 9.37744 13.8753 9.80319 12.8474C10.2289 11.8196 10.9499 10.9411 11.8749 10.323C12.7999 9.70491 13.8875 9.37503 15 9.37503C15.7019 9.37247 16.3979 9.50378 17.0506 9.76191Z" fill="#197E9F"/>
<path d="M14.2828 13.2681C14.436 13.2046 14.5576 13.0828 14.621 12.9296C14.6844 12.7764 14.6844 12.6044 14.6209 12.4512C14.5574 12.298 14.4357 12.1764 14.2825 12.1129C14.1293 12.0496 13.9572 12.0496 13.804 12.1131C13.3291 12.3096 12.91 12.6203 12.5838 13.0175C12.2576 13.4148 12.0345 13.8863 11.9341 14.3904C11.8338 14.8945 11.8593 15.4156 12.0085 15.9074C12.1577 16.3993 12.4259 16.8468 12.7893 17.2103C13.1528 17.5737 13.6003 17.8419 14.0921 17.9911C14.584 18.1402 15.1051 18.1658 15.6091 18.0654C16.1133 17.9651 16.5848 17.7419 16.9821 17.4158C17.3793 17.0896 17.69 16.6705 17.8865 16.1956C17.9499 16.0424 17.9499 15.8703 17.8864 15.7172C17.823 15.5641 17.7013 15.4424 17.5481 15.379C17.3949 15.3156 17.2228 15.3156 17.0697 15.3791C16.9166 15.4426 16.7949 15.5643 16.7315 15.7174C16.6136 16.0025 16.4273 16.2541 16.1889 16.4498C15.9505 16.6456 15.6676 16.7796 15.365 16.8398C15.0625 16.9001 14.7498 16.8848 14.4546 16.7953C14.1595 16.7057 13.8909 16.5448 13.6728 16.3266C13.4547 16.1084 13.2938 15.8399 13.2044 15.5447C13.115 15.2495 13.0997 14.9368 13.16 14.6343C13.2203 14.3318 13.3544 14.0488 13.5502 13.8105C13.7461 13.5722 13.9977 13.3859 14.2828 13.2681Z" fill="#197E9F"/>
<path d="M14.558 14.5578C14.4983 14.6155 14.4507 14.6845 14.418 14.7607C14.3852 14.837 14.368 14.919 14.3672 15.002C14.3665 15.085 14.3823 15.1673 14.4138 15.2441C14.4452 15.3209 14.4916 15.3907 14.5503 15.4493C14.609 15.508 14.6787 15.5544 14.7555 15.5858C14.8323 15.6173 14.9146 15.6331 14.9976 15.6324C15.0806 15.6317 15.1626 15.6144 15.2389 15.5817C15.3151 15.5489 15.3841 15.5013 15.4418 15.4416L23.2899 7.5941H25.553C25.6761 7.59441 25.7981 7.57028 25.9119 7.5231C26.0256 7.47591 26.1288 7.40653 26.2155 7.3191L28.243 5.29222C28.374 5.16104 28.4632 4.99395 28.4993 4.81208C28.5353 4.63022 28.5167 4.44175 28.4456 4.27049C28.3746 4.09923 28.2544 3.95289 28.1001 3.84996C27.946 3.74703 27.7646 3.69214 27.5793 3.69222H26.3074V2.42035C26.3075 2.23486 26.2525 2.05353 26.1495 1.89928C26.0465 1.74503 25.9001 1.6248 25.7287 1.55381C25.5573 1.48281 25.3688 1.46425 25.1869 1.50046C25.005 1.53667 24.8379 1.62603 24.7068 1.75722L22.6805 3.7841C22.5933 3.87091 22.5241 3.97416 22.477 4.08788C22.4299 4.2016 22.4058 4.32351 22.4061 4.4466V6.71035L14.558 14.5578ZM23.6561 4.57597L25.0574 3.17472V4.00472C25.0574 4.25336 25.1561 4.49182 25.332 4.66763C25.5078 4.84345 25.7463 4.94222 25.9949 4.94222H26.8255L25.4236 6.3441H23.6561V4.57597Z" fill="#197E9F"/>
<defs>
<linearGradient id="paint0_linear_605_2929" x1="53" y1="24" x2="8" y2="24" gradientUnits="userSpaceOnUse">
<stop stop-color="#C8E9F4"/>
<stop offset="1" stop-color="white"/>
</linearGradient>
</defs>
</svg>
