<svg width="15" height="23" viewBox="0 0 15 23" fill="none" xmlns="http://www.w3.org/2000/svg">
<path d="M9.50973 1.82608H5.8584V4.01688H9.50973V1.82608ZM8.77946 3.28661H6.58867V2.55635H8.77946V3.28661Z" fill="white"/>
<path d="M9.14518 19.3524H6.22412C5.42411 19.3524 4.65952 19.7347 4.17901 20.3752L3.74121 20.959L4.32542 21.3968L4.76322 20.813C5.10644 20.3558 5.65268 20.0827 6.22412 20.0827H9.14518C9.71662 20.0827 10.2629 20.3558 10.6061 20.813L11.0439 21.3972L11.6281 20.9594L11.1903 20.3748C10.7098 19.7347 9.94519 19.3524 9.14518 19.3524Z" fill="white"/>
<path d="M13.8918 17.1613H13.3441L13.6362 16.4934C14.048 15.5328 14.2569 14.5155 14.2569 13.4698C14.2569 12.9885 14.2113 12.5051 14.1214 12.0337L13.129 6.82435C12.9172 5.71289 11.9993 4.89243 10.8958 4.77121C10.9422 4.64998 10.9707 4.51926 10.9707 4.38161V1.46054C10.9707 0.856612 10.4792 0.365143 9.8753 0.365143H5.4937C4.88977 0.365143 4.3983 0.856612 4.3983 1.46054V4.38161C4.3983 4.51926 4.42678 4.64962 4.47315 4.77121C3.36972 4.89243 2.45141 5.71325 2.24 6.82435L1.24757 12.0333C1.15774 12.5051 1.1121 12.9882 1.1121 13.4698C1.1121 14.5155 1.32096 15.5328 1.73283 16.4934L2.01946 17.1613H1.47724C0.873305 17.1613 0.381836 17.6527 0.381836 18.2567V21.1777C0.381836 22.1844 1.20083 23.0034 2.2075 23.0034H13.1615C14.1682 23.0034 14.9872 22.1844 14.9872 21.1777V18.2567C14.9872 17.6527 14.4957 17.1613 13.8918 17.1613ZM12.4115 6.96091L13.404 12.1703C13.4854 12.5971 13.5266 13.0342 13.5266 13.4698C13.5266 14.4162 13.3375 15.3363 12.9651 16.2061L12.4703 17.3628L12.4265 17.4505C12.2067 17.6509 12.0661 17.9365 12.0661 18.2567V19.152C11.8474 18.9209 11.6002 18.7215 11.3358 18.5495V5.63036C11.8792 5.86442 12.2954 6.35077 12.4115 6.96091ZM4.76344 7.66781H10.6056V9.12834H4.76344V7.66781ZM10.6056 15.1844L9.8439 14.4228L10.6056 13.6611V15.1844ZM7.6845 10.0098L8.8113 11.1366L7.6845 12.2634L6.5577 11.1366L7.6845 10.0098ZM6.0414 10.6203L5.27973 9.85861H6.80307L6.0414 10.6203ZM8.56593 9.85861H10.0893L9.3276 10.6203L8.56593 9.85861ZM7.1682 12.7797L6.0414 13.9065L4.9146 12.7797L6.0414 11.6529L7.1682 12.7797ZM7.6845 13.296L8.8113 14.4228L7.6845 15.5496L6.5577 14.4228L7.6845 13.296ZM8.2008 12.7797L9.3276 11.6529L10.4544 12.7797L9.3276 13.9065L8.2008 12.7797ZM10.6056 11.8982L9.8439 11.1366L10.6056 10.3749V11.8982ZM4.76344 10.3749L5.5251 11.1366L4.76344 11.8982V10.3749ZM4.76344 13.6611L5.5251 14.4228L4.76344 15.1844V13.6611ZM6.0414 14.9391L6.80307 15.7007H5.27973L6.0414 14.9391ZM9.3276 14.9391L10.0893 15.7007H8.56593L9.3276 14.9391ZM10.6056 5.47701V6.93754H4.76344V5.47701H5.4937H9.8753H10.6056ZM4.76344 16.431H10.6056V18.1738C10.144 17.9927 9.65001 17.8915 9.14504 17.8915H6.22397C5.71899 17.8915 5.22496 17.9927 4.76344 18.1738V16.431ZM5.12857 1.46054C5.12857 1.25935 5.29215 1.09541 5.4937 1.09541H9.8753C10.0769 1.09541 10.2404 1.25935 10.2404 1.46054V4.38161C10.2404 4.5828 10.0769 4.74674 9.8753 4.74674H5.4937C5.29215 4.74674 5.12857 4.5828 5.12857 4.38161V1.46054ZM1.96505 12.1703L2.95749 6.96091C3.0736 6.35077 3.48985 5.86405 4.03317 5.63036V18.5495C3.76881 18.7215 3.52162 18.9209 3.3029 19.152V18.2567C3.3029 17.9394 3.16525 17.656 2.94945 17.4556L2.40431 16.2057C2.03151 15.3363 1.84237 14.4158 1.84237 13.4698C1.84237 13.0342 1.88363 12.5971 1.96505 12.1703ZM14.2569 21.1777C14.2569 21.7817 13.7654 22.2731 13.1615 22.2731H2.2075C1.60357 22.2731 1.1121 21.7817 1.1121 21.1777V18.2567C1.1121 18.0551 1.27568 17.8915 1.47724 17.8915H2.2075C2.40906 17.8915 2.57264 18.0551 2.57264 18.2567V20.0823H3.48547L3.59501 19.9367C4.21245 19.1133 5.19539 18.6218 6.22397 18.6218H9.14504C10.1736 18.6218 11.1566 19.1133 11.774 19.9367L11.8835 20.0823H12.7964V18.2567C12.7964 18.0551 12.9599 17.8915 13.1615 17.8915H13.8918C14.0933 17.8915 14.2569 18.0551 14.2569 18.2567V21.1777Z" fill="white"/>
</svg>
