<svg width="131" height="50" viewBox="0 0 131 50" fill="none" xmlns="http://www.w3.org/2000/svg">
<g clip-path="url(#clip0_292_135)">
<path d="M5.31125 26.4937C6.90814 26.4943 8.50526 26.4795 10.1018 26.504C10.5333 26.5107 10.6366 26.3726 10.6333 25.9602C10.6147 23.6394 10.6275 21.3183 10.6233 18.9974C10.6206 17.5036 9.63889 16.486 8.13766 16.4508C7.04863 16.4253 5.95824 16.432 4.86901 16.4529C4.47539 16.4605 4.34298 16.328 4.34795 15.9372C4.36554 14.5523 4.35688 13.1671 4.35505 11.782C4.35474 11.5449 4.34682 11.3151 4.68643 11.3269C6.48332 11.3894 8.29267 11.1498 10.0746 11.5755C11.6821 11.9687 13.1116 12.8866 14.1357 14.1832C15.1597 15.4798 15.7195 17.0806 15.726 18.731C15.7216 21.1268 15.7308 23.5227 15.7208 25.9184C15.7192 26.2879 15.7579 26.5064 16.2254 26.5023C19.1182 26.4769 22.0112 26.4827 24.9041 26.466C25.4271 26.4629 26.1193 26.5068 26.3619 26.0874C26.5732 25.7223 25.9802 25.3079 25.7317 24.9294C24.2929 22.7378 22.8379 20.5568 21.3667 18.3865C21.2751 18.2723 21.2194 18.1337 21.2067 17.9881C21.194 17.8425 21.2248 17.6963 21.2952 17.5681C21.9737 16.0475 22.6225 14.5138 23.2831 12.9853C23.3138 12.8684 23.3707 12.7601 23.4494 12.6683C23.5281 12.5765 23.6266 12.5037 23.7376 12.4553C26.8839 11.3241 30.0792 10.8864 33.3391 11.893C37.5368 13.1893 39.2736 16.8082 37.7237 20.9405C37.0458 22.7292 36.075 24.3933 34.8509 25.8652C34.7378 26.0028 34.5163 26.139 34.5827 26.3228C34.6553 26.5236 34.9107 26.4631 35.0875 26.464C38.0179 26.4779 40.9484 26.4823 43.8789 26.4946C44.1599 26.4958 44.2576 26.4319 44.122 26.1428C43.6071 25.0456 43.5177 23.8759 43.5558 22.6865C43.6103 20.9863 43.4215 19.2787 43.672 17.5852C44.1557 14.3143 47.0018 11.6689 50.3188 11.3821C54.6657 11.0063 58.2923 14.0967 58.5538 18.4377C58.6615 20.3061 58.6597 22.1793 58.5485 24.0475C58.498 24.7394 58.3306 25.4177 58.0533 26.054C57.9542 26.2934 57.8881 26.5001 58.2722 26.4902C59.9033 26.4477 61.543 26.6319 63.1642 26.3479C64.6079 26.0949 65.5022 25.356 65.4256 23.6715C65.3534 22.0838 65.4113 20.4903 65.4092 18.8993C65.3914 16.9186 66.1592 15.0112 67.5454 13.5925C68.9317 12.1737 70.824 11.3587 72.8102 11.3249C76.9052 11.2231 80.4293 14.6632 80.4159 18.7423C80.4091 20.8012 80.4148 22.8601 80.4135 24.919C80.4008 26.7822 79.6878 28.5728 78.4154 29.9372C77.1431 31.3017 75.4038 32.1408 73.5412 32.2889C72.5099 32.3824 71.4704 32.2581 70.4905 31.9241C69.5106 31.5902 68.6123 31.0541 67.8541 30.3508C67.5821 30.107 67.4172 30.0934 67.098 30.2893C65.5163 31.2597 63.7493 31.6 61.9247 31.6034C53.0573 31.62 44.1899 31.6212 35.3224 31.607C33.6203 31.6194 31.9512 31.1381 30.5183 30.2219C30.4102 30.1369 30.2778 30.0884 30.1402 30.0834C30.0026 30.0784 29.867 30.1171 29.7529 30.1939C27.9839 31.1618 25.9924 31.6533 23.9748 31.6199C16.2159 31.5975 8.45691 31.5989 0.697878 31.6241C0.149354 31.6254 -0.00251568 31.4754 0.0134556 30.9395C0.0507926 29.6865 0.0506196 28.4327 0.0129368 27.178C-0.00275254 26.65 0.128259 26.4655 0.690009 26.4797C2.22955 26.5187 3.77073 26.4931 5.31125 26.4937ZM70.5246 21.9986C70.5246 23.3692 70.5229 24.4727 70.526 25.5762C70.5266 25.7958 70.495 26.0197 70.7108 26.19C71.0619 26.4997 71.4541 26.7598 71.8763 26.9628C73.5945 27.683 75.2636 26.5965 75.2692 24.7396C75.275 22.7758 75.2747 20.8119 75.2681 18.8481C75.2764 18.2434 75.0515 17.6586 74.6397 17.2145C74.228 16.7704 73.661 16.501 73.0558 16.4619C72.4587 16.4217 71.8691 16.6121 71.4091 16.9938C70.9492 17.3754 70.6542 17.919 70.5853 18.5116C70.4243 19.7574 70.5678 21.0144 70.5246 21.9986ZM48.721 21.4541H48.7227C48.7227 22.3515 48.715 23.249 48.7246 24.1463C48.7246 24.7699 48.9716 25.3684 49.412 25.8113C49.8524 26.2542 50.4504 26.5057 51.0759 26.511C51.6933 26.5026 52.2837 26.257 52.7241 25.8254C53.1645 25.3938 53.421 24.8095 53.4403 24.1941C53.464 22.3809 53.4638 20.5675 53.4395 18.7538C53.4255 18.1336 53.1665 17.5441 52.7188 17.1134C52.271 16.6827 51.6708 16.4459 51.0487 16.4543C50.4266 16.4628 49.8331 16.7159 49.3973 17.1586C48.9615 17.6013 48.7187 18.1977 48.7218 18.8181C48.7178 19.6967 48.721 20.5754 48.721 21.4541ZM33.1568 18.2484C33.1606 17.5928 32.7436 17.0836 31.9842 16.8335C30.3085 16.2815 28.6223 16.3839 26.9379 16.8087C26.6394 16.8839 26.6041 17.0344 26.751 17.2987C27.8779 19.3267 29.0572 21.3224 30.3411 23.2568C30.569 23.6003 30.7039 23.5274 30.9088 23.2552C31.3037 22.7323 31.6537 22.1771 31.955 21.5955C32.5143 20.513 32.9881 19.3967 33.1568 18.2484Z" fill="#0C7C9D"/>
<path d="M122.701 22.6451C123.961 23.3504 125.209 24.0666 126.281 25.0543C129.079 27.6315 130.691 30.7874 130.958 34.5853C131.287 39.2545 129.691 43.1879 126.227 46.3297C123.669 48.6826 120.312 49.9807 116.832 49.9622C111.14 50.0105 105.447 50.0128 99.7539 49.969C97.1814 49.9495 94.6173 49.7178 92.1538 48.8806C91.1276 48.565 90.1773 48.0428 89.3616 47.3465C88.846 46.9057 88.4417 46.3503 88.181 45.725C87.9204 45.0997 87.8107 44.4221 87.861 43.7468C87.8688 43.5977 87.8581 43.4477 87.856 43.298C88.1956 41.626 88.8876 40.0452 89.8861 38.6601C92.6411 34.7223 96.1955 31.5909 100.037 28.7525C101.437 27.718 102.915 26.8008 104.361 25.8346L108.867 23.448C109.025 23.3951 109.189 23.3533 109.342 23.2877C111.97 22.1616 114.654 21.2724 117.569 21.3724C118.013 21.4326 118.457 21.491 118.9 21.5534C120.218 21.7393 121.46 22.1895 122.701 22.6451Z" fill="#0C7C9D"/>
<path d="M104.361 25.8346C102.915 26.8008 101.437 27.718 100.037 28.7525C96.1955 31.5909 92.6411 34.7223 89.8861 38.6601C88.8875 40.0452 88.1955 41.626 87.856 43.298C87.7007 43.1221 87.7544 42.9053 87.7543 42.7066C87.7505 32.8861 87.7097 23.0653 87.7781 13.2453C87.7965 10.5942 88.8217 8.18785 90.3659 6.02168C92.391 3.0946 95.473 1.06195 98.9669 0.349117C102.006 -0.346271 105.19 -0.0124106 108.017 1.29796C109.904 2.1372 111.573 3.39665 112.896 4.97955C112.708 4.98149 112.521 4.9857 112.333 4.98505C109.209 4.9508 106.197 6.1422 103.946 8.30229C101.696 10.4624 100.386 13.4181 100.301 16.532C100.197 20.2319 101.607 23.3404 104.361 25.8346Z" fill="#80C9DB"/>
<path d="M104.361 25.8345C101.607 23.3403 100.198 20.2318 100.301 16.5319C100.386 13.418 101.696 10.4623 103.947 8.30224C106.198 6.14214 109.21 4.95074 112.334 4.98498C112.521 4.98564 112.708 4.98143 112.896 4.97949C115.499 5.1544 117.98 6.14738 119.982 7.81584C124.211 11.3503 125.429 17.6145 122.802 22.4447C122.766 22.5103 122.735 22.5782 122.701 22.645C121.461 22.1894 120.219 21.7392 118.9 21.5534C118.457 21.4909 118.013 21.4326 117.57 21.3724C117.913 20.7928 118.201 20.1831 118.432 19.551C118.571 19.1661 118.472 19.0205 118.081 18.9341C114.073 18.0473 110.067 17.1512 106.063 16.2457C105.703 16.1642 105.56 16.2638 105.51 16.6273C105.347 17.7224 105.459 18.8406 105.835 19.8822C106.403 21.444 107.467 22.5878 108.867 23.4479L104.361 25.8345ZM106.025 13.7352C106.022 13.9087 106.053 14.0811 106.118 14.2423C106.182 14.4035 106.278 14.5503 106.4 14.6742C106.522 14.798 106.668 14.8964 106.828 14.9636C106.988 15.0308 107.161 15.0655 107.335 15.0656C107.513 15.0684 107.691 15.0358 107.857 14.9697C108.023 14.9036 108.174 14.8053 108.301 14.6806C108.429 14.5558 108.53 14.4071 108.6 14.2429C108.669 14.0788 108.705 13.9025 108.706 13.7244C108.706 13.5507 108.672 13.3787 108.605 13.2183C108.538 13.0578 108.44 12.9121 108.317 12.7894C108.194 12.6667 108.047 12.5695 107.886 12.5033C107.725 12.4371 107.553 12.4032 107.378 12.4036C107.2 12.3951 107.022 12.4236 106.855 12.4872C106.688 12.5509 106.536 12.6484 106.409 12.7735C106.282 12.8986 106.182 13.0487 106.116 13.2142C106.05 13.3797 106.019 13.5571 106.025 13.7352ZM117.971 17.3412C118.144 17.3474 118.317 17.3185 118.479 17.2563C118.641 17.1941 118.789 17.0999 118.914 16.9793C119.038 16.8587 119.137 16.7142 119.205 16.5545C119.272 16.3948 119.306 16.2232 119.305 16.05C119.303 15.6908 119.158 15.3471 118.903 15.0937C118.647 14.8404 118.302 14.698 117.942 14.6977C117.591 14.7001 117.255 14.8405 117.007 15.0884C116.759 15.3363 116.619 15.6716 116.618 16.0216C116.61 16.1995 116.64 16.377 116.705 16.5426C116.771 16.7082 116.871 16.8581 116.999 16.9826C117.126 17.1071 117.279 17.2034 117.446 17.2652C117.614 17.327 117.792 17.3529 117.971 17.3412Z" fill="#EF5371"/>
<path d="M6.10712 42.4464C5.7277 43.4787 5.32838 44.5043 4.97817 45.5463C4.82843 45.9919 4.60187 46.1555 4.12355 46.1381C2.82449 46.0909 3.12209 46.2598 2.7008 45.1645C2.35473 44.2647 2.0336 43.3554 1.65514 42.4595C1.53005 43.2583 1.67114 44.0458 1.67391 44.8345C1.67733 45.8078 1.67512 46.7813 1.69769 47.7541C1.70564 48.0965 1.58679 48.1995 1.24394 48.2065C0.0232005 48.2315 0.0247454 48.2443 0.0226864 47.0061C0.0183294 44.3856 0.0181984 41.765 3.50596e-05 39.1445C-0.00222013 38.8179 0.103986 38.7362 0.416132 38.7263C1.70781 38.6854 1.70982 38.6746 2.19221 39.8536C2.70235 41.1005 3.20646 42.3498 3.71677 43.5966C3.75599 43.6924 3.7475 43.8284 3.96106 43.8731C4.3014 43.0476 4.6464 42.2106 4.99146 41.3738C5.29813 40.63 5.62228 39.8927 5.90344 39.1395C5.93931 39.0057 6.02311 38.8897 6.139 38.8133C6.25488 38.737 6.39481 38.7056 6.53231 38.7252C7.81871 38.7156 7.81796 38.7055 7.818 39.9754C7.81805 42.5212 7.80778 45.0672 7.82952 47.6129C7.83352 48.0819 7.69633 48.2208 7.22685 48.2077C6.14425 48.1775 6.15 48.2007 6.14197 47.0954C6.13072 45.5491 6.14972 44.0034 6.25595 42.4587L6.10712 42.4464Z" fill="#197E9F"/>
<path d="M23.8214 43.4148C23.8214 44.0874 23.8214 44.7599 23.8215 45.4325C23.8446 45.8467 23.7528 46.2593 23.556 46.6248C23.2066 47.1881 23.0569 47.6773 23.6825 48.1426C23.8055 48.2341 23.7869 48.3725 23.6603 48.4773C23.5737 48.5489 23.4884 48.622 23.4035 48.6955C22.7958 49.2211 22.7853 49.2294 22.2799 48.5799C22.0804 48.3235 21.9116 48.1819 21.5402 48.256C19.5126 48.661 18.0539 47.6676 17.8554 45.6282C17.7002 44.1031 17.7081 42.566 17.8789 41.0426C18.0643 39.4578 19.2365 38.5252 20.8866 38.5649C22.5545 38.6052 23.6923 39.6261 23.7979 41.23C23.8456 41.9553 23.806 42.6863 23.806 43.4148L23.8214 43.4148ZM22.0244 43.4889L22.0194 43.4888C22.0194 42.7795 22.0515 42.0684 22.0101 41.3615C22.0131 41.067 21.899 40.7833 21.6927 40.5725C21.4864 40.3617 21.2048 40.241 20.9094 40.2367C20.2173 40.2037 19.8109 40.534 19.6365 41.2373C19.5659 41.6042 19.5443 41.9789 19.5723 42.3515C19.5924 43.433 19.4763 44.5207 19.6294 45.5944C19.7376 46.353 20.2156 46.7091 20.8933 46.6717C21.5642 46.6347 21.9802 46.2093 22.0178 45.4478C22.0499 44.7963 22.0244 44.142 22.0244 43.4889Z" fill="#197E9F"/>
<path d="M41.4173 43.4317C41.4165 42.0285 41.4141 40.6253 41.4193 39.222C41.42 39.0332 41.339 38.7462 41.6543 38.7482C42.7399 38.7553 43.8403 38.5944 44.9068 38.8663C46.1844 39.192 46.855 40.0985 46.8919 41.52C46.9249 42.7914 46.9318 44.0654 46.8911 45.3363C46.8353 47.0821 45.8699 48.054 44.1156 48.1647C43.3859 48.2108 42.6508 48.1682 41.9202 48.2055C41.5176 48.226 41.3645 48.0843 41.418 47.6975C41.4193 47.6788 41.4194 47.6601 41.4182 47.6414C41.4181 46.2382 41.4179 44.835 41.4173 43.4317ZM43.1372 43.449C43.1372 44.3259 43.1372 45.2027 43.1373 46.0796C43.1383 46.0983 43.1383 46.1169 43.1371 46.1356C43.0998 46.4397 43.2117 46.556 43.5406 46.5656C44.6715 46.5988 45.1819 46.1603 45.2056 45.0281C45.2279 43.9651 45.2278 42.9017 45.2052 41.8379C45.1824 40.7478 44.7288 40.361 43.6262 40.3539C43.2167 40.3513 43.1202 40.4985 43.1302 40.8745C43.1528 41.7321 43.1373 42.5908 43.1372 43.449Z" fill="#197E9F"/>
<path d="M38.5442 48.1965C37.6818 48.1971 37.7061 48.1912 37.4924 47.3214C37.2548 46.3539 37.5122 46.4927 36.4732 46.4836C35.1949 46.4724 35.1865 46.4783 34.8878 47.7528C34.8122 48.0752 34.6911 48.2534 34.327 48.2017C34.1212 48.1857 33.9145 48.1843 33.7085 48.1974C32.9715 48.1982 32.9726 48.1985 33.1552 47.4613C33.8333 44.724 34.5203 41.9889 35.1779 39.2467C35.2761 38.8373 35.4434 38.7166 35.8553 38.7223C37.1484 38.7402 37.1488 38.723 37.4617 39.9906C38.0838 42.5105 38.7061 45.0303 39.3289 47.5499C39.4894 48.1966 39.4973 48.1946 38.8257 48.1964C38.7319 48.1967 38.6381 48.1965 38.5442 48.1965ZM36.2581 41.2623C36.0356 42.2919 35.8379 43.3124 35.6012 44.3266C35.558 44.5119 35.4044 44.8094 35.7815 44.8487C36.0989 44.87 36.4173 44.8713 36.7349 44.8525C36.9054 44.8486 36.9554 44.7423 36.9238 44.5851C36.7015 43.4776 36.4796 42.37 36.2581 41.2623Z" fill="#197E9F"/>
<path d="M30.9646 48.1965C29.9775 48.1872 30.1116 48.3168 29.8955 47.3312C29.7087 46.4791 29.7017 46.4806 28.8112 46.4811C27.5801 46.4818 27.5656 46.4787 27.3128 47.6466C27.224 48.0567 27.0693 48.2214 26.614 48.2096C25.3704 48.1775 25.3825 48.2057 25.692 46.9683C26.3358 44.3944 26.9687 41.8179 27.5908 39.2388C27.6809 38.8628 27.8213 38.7217 28.2242 38.723C29.5259 38.7275 29.533 38.7082 29.8437 39.957C30.4526 42.405 31.0564 44.8542 31.6552 47.3048C31.873 48.1948 31.8653 48.1967 30.9646 48.1965ZM28.6209 41.2649C28.3941 42.3687 28.1669 43.4725 27.9393 44.5762C27.907 44.7319 27.9437 44.8463 28.1151 44.8516C28.4518 44.862 28.7893 44.8613 29.1261 44.8523C29.2893 44.8479 29.3569 44.7427 29.3197 44.5847C29.0615 43.4861 28.8588 42.3763 28.6209 41.2649Z" fill="#197E9F"/>
<path d="M13.0207 38.7329C13.911 38.7308 13.9289 38.7263 14.1479 39.6042C14.8256 42.3214 15.4815 45.044 16.1648 47.7598C16.2599 48.1375 16.1534 48.1993 15.8029 48.2049C14.4889 48.2259 14.4742 48.2401 14.1989 46.9669C14.1206 46.6044 13.9759 46.434 13.6031 46.4799C13.5282 46.4849 13.453 46.4853 13.3781 46.4811C12.0116 46.4793 12.0006 46.4764 11.6544 47.7883C11.6473 47.8515 11.6275 47.9125 11.5963 47.9679C11.565 48.0233 11.523 48.0718 11.4727 48.1108C11.4223 48.1497 11.3646 48.1781 11.3031 48.1944C11.2415 48.2108 11.1773 48.2146 11.1142 48.2058C9.77779 48.2391 9.76318 48.2451 10.0693 46.9774C10.7046 44.3461 11.3623 41.7201 11.9957 39.0883C12.0632 38.8077 12.1931 38.7155 12.458 38.7309C12.645 38.7419 12.8331 38.7331 13.0207 38.7329ZM13.0738 41.2355C12.8913 41.3177 12.9221 41.465 12.8994 41.5849C12.7374 42.4427 12.5881 43.303 12.4156 44.1587C12.2739 44.8615 12.2622 44.8592 12.9924 44.8593C13.0671 44.8553 13.1419 44.8558 13.2165 44.8607C13.6283 44.911 13.7564 44.7378 13.6592 44.3438C13.4055 43.3195 13.2101 42.2818 13.0738 41.2355Z" fill="#197E9F"/>
<path d="M57.6385 6.5542C57.6388 7.05861 57.6256 7.56349 57.6435 8.06728C57.6551 8.39454 57.55 8.58659 57.2003 8.53015C56.5195 8.42027 56.0086 8.68096 55.585 9.19376C55.4763 9.32406 55.3368 9.42528 55.179 9.48822C55.0212 9.55116 54.8502 9.57385 54.6814 9.55423C54.4013 9.53648 54.1191 9.5499 53.8378 9.55C52.9902 9.55027 52.9794 9.55142 52.8981 8.72214C52.8741 8.47703 52.7762 8.39011 52.5479 8.40363C52.4732 8.40806 52.3979 8.40391 52.3229 8.40312C51.0556 8.38979 51.0557 8.38977 51.0555 7.09645C51.0554 6.49862 51.0667 5.90043 51.049 5.30311C51.0393 4.97681 51.1299 4.80444 51.4903 4.85196C51.6399 4.86344 51.7901 4.8646 51.9398 4.85543C52.7952 4.84859 52.8065 4.84945 52.887 4.00867C52.9108 3.7603 53.0107 3.69221 53.2376 3.69581C53.7813 3.70444 54.3251 3.69751 54.8689 3.70089C55.0007 3.70133 55.1309 3.72918 55.2512 3.78264C55.3715 3.83611 55.4794 3.91403 55.5678 4.01141C55.999 4.45884 56.4821 4.7699 57.1498 4.64108C57.5617 4.56163 57.6638 4.78041 57.644 5.15335C57.6194 5.6191 57.6381 6.08714 57.6385 6.5542ZM51.8455 6.54177H51.8394C51.8394 6.69153 51.85 6.84219 51.8372 6.99084C51.812 7.28189 51.942 7.39392 52.2287 7.39479C52.5232 7.39568 52.5641 7.22778 52.5583 6.9943C52.5504 6.67624 52.5525 6.35791 52.5523 6.0397C52.5522 5.82609 52.4414 5.74408 52.2344 5.74465C52.0248 5.74523 51.8541 5.78216 51.8465 6.03653C51.8414 6.2048 51.8455 6.37335 51.8455 6.54177Z" fill="#197E9F"/>
<path d="M75.0405 41.6769C75.555 41.6769 75.9434 41.6737 76.3316 41.678C76.6088 41.6812 76.6124 41.4947 76.6123 41.2982C76.612 40.8865 76.626 40.4743 76.6101 40.0633C76.5992 39.7784 76.7361 39.7141 76.9865 39.719C77.2374 39.7239 77.4334 39.7454 77.4223 40.0746C77.4085 40.4857 77.4286 40.898 77.4204 41.3095C77.4143 41.6142 77.5777 41.6863 77.8461 41.6817C78.1026 41.6772 78.2268 41.5784 78.2226 41.3145C78.216 40.9029 78.2343 40.4906 78.2189 40.0795C78.2069 39.7586 78.3817 39.7196 78.6436 39.7177C78.9155 39.7158 79.0687 39.7767 79.0552 40.0906C79.0374 40.5014 79.0542 40.9138 79.0554 41.3255C79.0559 41.508 79.0864 41.6611 79.3207 41.67C79.5699 41.6796 79.6505 41.5382 79.6526 41.3218C79.6567 40.9102 79.6701 40.4981 79.6562 40.087C79.6472 39.8211 79.7467 39.721 80.0131 39.7184C80.2878 39.7157 80.4345 39.784 80.4225 40.0947C80.4044 40.5618 80.4337 41.0308 80.4141 41.4979C80.3894 42.0868 80.09 42.423 79.4989 42.4217C77.6972 42.4175 75.8954 42.4289 74.0934 42.4101C72.6144 42.3947 71.1317 42.432 69.6506 42.4371C67.4734 42.4445 65.2962 42.4503 63.119 42.4546C62.2718 42.4552 61.7839 41.9875 61.7609 41.1446C61.7426 40.4714 61.762 39.7972 61.7502 39.1237C61.745 38.8254 61.8322 38.6863 62.1663 38.6857C62.5302 38.6851 62.5508 38.8798 62.5468 39.1513C62.5381 39.7313 62.5423 40.3116 62.5439 40.8917C62.5457 41.5717 62.6554 41.6909 63.3777 41.6944C64.596 41.7002 65.8143 41.6827 67.0326 41.6805C68.813 41.6772 70.5935 41.6794 72.3739 41.6767C72.4978 41.6766 72.6371 41.7171 72.7668 41.5469C72.2232 41.1589 72.3117 40.6937 72.6541 40.2174C73.0129 39.7182 73.7443 39.4963 74.4317 39.6731C74.7063 39.7392 74.9567 39.881 75.1543 40.0823C75.3519 40.2836 75.4887 40.5362 75.5491 40.8113C75.6264 41.1946 75.2982 41.3116 75.0405 41.6769ZM74.0078 40.3276C73.5853 40.331 73.2282 40.5694 73.2145 40.8152C73.2067 40.9546 73.7822 41.5241 73.9395 41.5327C74.0988 41.5413 74.7153 41.0008 74.6914 40.8433C74.6272 40.4211 74.2919 40.3586 74.0078 40.3276Z" fill="#197E9F"/>
<path d="M49.827 6.62937C49.8266 7.45267 49.8143 8.27623 49.8322 9.09914C49.8401 9.46186 49.7148 9.61604 49.3431 9.58458C49.0811 9.55824 48.8172 9.55838 48.5552 9.585C47.7764 9.6777 47.1082 9.50684 46.6077 8.86268C46.3063 8.47478 45.8691 8.53704 45.4661 8.57122C45.0324 8.60802 44.9196 8.4434 44.9309 8.03028C44.9583 7.03931 44.9497 6.04699 44.9356 5.05549C44.9311 4.74075 45.0367 4.58791 45.3561 4.64002C45.6708 4.69651 45.9949 4.66592 46.2933 4.55156C46.5917 4.4372 46.8529 4.24345 47.0486 3.99139C47.1447 3.88743 47.2634 3.80682 47.3956 3.75577C47.5278 3.70471 47.67 3.68456 47.8112 3.69687C48.0176 3.70198 48.2243 3.69662 48.4309 3.69651C49.827 3.69581 49.827 3.69586 49.8275 5.11375C49.8277 5.61896 49.8275 6.12416 49.827 6.62937Z" fill="#197E9F"/>
<path d="M58.4095 46.3136C58.4095 46.1079 58.4045 45.9019 58.4107 45.6963C58.419 45.4198 58.6012 45.3729 58.8353 45.371C59.0849 45.3689 59.225 45.4444 59.216 45.7227C59.204 46.0965 59.223 46.4713 59.2105 46.8451C59.1987 46.905 59.1997 46.9668 59.2135 47.0264C59.2273 47.0859 59.2535 47.1419 59.2904 47.1906C59.3274 47.2394 59.3743 47.2798 59.4279 47.3093C59.4816 47.3387 59.541 47.3566 59.602 47.3616C59.666 47.3799 59.733 47.3852 59.7991 47.3771C59.8651 47.369 59.9289 47.3478 59.9865 47.3148C60.0442 47.2817 60.0946 47.2374 60.1348 47.1845C60.175 47.1316 60.2041 47.0712 60.2205 47.0069C60.2679 46.7696 60.302 46.5298 60.3227 46.2888C60.4482 45.5537 60.9395 45.1585 61.6564 45.2076C62.3199 45.253 62.7474 45.7247 62.7793 46.4465C62.8299 47.5899 62.3309 48.2363 61.399 48.0593C60.8825 47.9611 60.4255 48.0468 59.9338 48.0626C58.0183 48.1239 56.0901 48.1981 54.1872 48.0332C53.4599 47.9702 52.7885 48.1511 52.091 48.0915C51.5594 48.0461 51.1409 48.1309 51.2175 48.8262C51.252 49.1388 50.9997 49.1101 50.7912 49.1161C50.5715 49.1223 50.4385 49.0604 50.4331 48.8047C50.4215 48.2573 50.467 47.739 51.0488 47.4779C51.2737 47.377 51.2703 47.2275 51.2547 47.0242C51.2256 46.7454 51.2298 46.4641 51.2672 46.1862C51.292 45.912 51.4186 45.6569 51.6223 45.4709C51.8261 45.285 52.0921 45.1818 52.3683 45.1814C53.0427 45.1505 53.4115 45.4207 53.615 46.0706C53.6825 46.3044 53.7104 46.5478 53.6975 46.7908C53.6866 47.2077 53.9447 47.3535 54.3023 47.3679C54.753 47.386 54.624 47.0282 54.6128 46.8038C54.5751 46.0456 54.8294 45.482 55.5872 45.2264C55.7479 45.1722 55.7365 45.0485 55.7916 44.9352C55.8246 44.8715 55.8748 44.8181 55.9364 44.7812C55.998 44.7442 56.0688 44.7251 56.1407 44.7259C56.2126 44.7267 56.2829 44.7475 56.3437 44.7858C56.4045 44.8241 56.4534 44.8786 56.4849 44.943C56.5023 45.0123 56.5364 45.0762 56.5844 45.1292C56.6323 45.1822 56.6926 45.2226 56.7599 45.2468C57.4694 45.4929 57.7169 46.0163 57.6929 46.7346C57.6852 46.9656 57.507 47.3661 57.9913 47.3617C58.4243 47.3578 58.4031 47.012 58.4031 46.7066C58.4031 46.5756 58.4031 46.4446 58.4031 46.3137L58.4095 46.3136ZM61.0992 46.6209C61.1011 46.7758 61.118 46.93 61.1496 47.0816C61.2221 47.3133 61.3886 47.4867 61.6465 47.4152C62.0085 47.3149 62.0193 46.9777 62.0124 46.6892C62.0047 46.3723 62.0508 45.9833 61.61 45.8821C61.3697 45.8269 61.227 45.9973 61.1598 46.2041C61.1267 46.3409 61.1064 46.4804 61.0992 46.6209ZM52.923 46.6352C52.914 46.5183 52.9118 46.4436 52.9021 46.3698C52.8608 46.0577 52.7111 45.7721 52.371 45.8834C51.876 46.0453 51.9995 46.5139 52.0335 46.89C52.0579 47.1596 52.1849 47.4137 52.5252 47.376C52.6088 47.3579 52.6855 47.3161 52.7459 47.2556C52.8063 47.1951 52.848 47.1185 52.8658 47.035C52.8975 46.9039 52.9167 46.77 52.923 46.6352ZM55.8135 46.7363C55.8218 46.6482 55.8208 46.5595 55.8105 46.4716C55.7709 46.3168 55.9367 46.0368 55.6465 46.0379C55.4587 46.0386 55.3885 46.2763 55.37 46.4697C55.3556 46.5429 55.3555 46.6182 55.3698 46.6915C55.4445 46.925 55.1761 47.3627 55.5802 47.3677C55.9969 47.3728 55.7247 46.9241 55.8135 46.7363ZM56.4989 46.6292C56.4989 46.7791 56.4941 46.8911 56.5 47.0024C56.5085 47.1612 56.453 47.3711 56.7013 47.3903C56.9816 47.412 56.9698 47.1978 56.971 47.0075C56.9716 46.9144 56.9756 46.8212 56.9714 46.7283C56.9586 46.4482 56.9557 46.0473 56.6427 46.0539C56.3571 46.06 56.5714 46.4572 56.4989 46.6292Z" fill="#197E9F"/>
<path d="M55.6404 42.458C55.059 42.458 54.4776 42.458 53.8962 42.4581C53.8587 42.4581 53.8112 42.4746 53.7851 42.4578C52.9861 41.9432 52.1792 42.5556 51.3756 42.4406C50.9828 42.3843 50.7518 42.5918 50.7851 42.9893C50.8191 43.3958 50.6164 43.4535 50.2803 43.4439C49.8461 43.4316 50.0117 43.1196 50.0001 42.9157C49.9727 42.4334 50.123 42.0175 50.5946 41.8067C50.8517 41.6918 50.8392 41.5114 50.807 41.3003C50.7454 40.9482 50.7786 40.586 50.9031 40.2508C50.9908 40.0187 51.1492 39.8198 51.3559 39.6819C51.5627 39.544 51.8076 39.4741 52.0562 39.482C52.3048 39.4898 52.5448 39.575 52.7424 39.7257C52.94 39.8763 53.0854 40.0848 53.1582 40.322C53.2312 40.593 53.264 40.8731 53.2557 41.1535C53.2677 41.5415 53.5141 41.6551 53.8593 41.6572C54.2686 41.6598 54.1718 41.3532 54.1645 41.1361C54.1392 40.388 54.3737 39.8135 55.1417 39.56C55.1965 39.5456 55.2454 39.5142 55.2813 39.4703C55.3172 39.4264 55.3382 39.3724 55.3414 39.3158C55.3597 39.0878 55.511 39.0551 55.6963 39.057C55.8722 39.0588 56.0499 39.0562 56.0569 39.299C56.0625 39.4967 56.2164 39.5269 56.3556 39.5815C57.0202 39.8424 57.271 40.3522 57.2798 41.0386C57.2825 41.2535 57.0948 41.6254 57.5348 41.6452C57.9632 41.6646 58.0476 41.3514 58.0477 40.9985C58.0478 40.6994 58.0669 40.3995 58.0517 40.1013C58.0368 39.8063 58.1574 39.712 58.4473 39.7137C58.7262 39.7153 58.8056 39.8266 58.7934 40.0837C58.7784 40.4008 58.7911 40.7193 58.7904 41.0371C58.7884 42.011 58.3303 42.4531 57.3294 42.4456C57.0479 42.4435 56.7665 42.4346 56.4851 42.4322C56.2035 42.4299 55.922 42.4317 55.6405 42.4317L55.6404 42.458ZM52.4743 40.8991C52.4429 40.6339 52.4982 40.1636 52.0105 40.1816C51.5489 40.1985 51.5737 40.6569 51.569 41.0064C51.5769 41.1538 51.6052 41.2995 51.6532 41.4392C51.6718 41.512 51.7139 41.5767 51.7729 41.6233C51.832 41.67 51.9047 41.696 51.98 41.6974C52.064 41.7056 52.1483 41.6871 52.221 41.6445C52.2937 41.6019 52.351 41.5374 52.3847 41.4603C52.4641 41.2845 52.4951 41.0908 52.4743 40.8991ZM56.0286 40.935C56.1555 41.1823 55.8394 41.6536 56.2651 41.6732C56.7326 41.6946 56.4684 41.2194 56.5109 40.9685C56.5556 40.7041 56.4651 40.3281 56.2015 40.3401C55.883 40.3546 56.1405 40.736 56.0286 40.935ZM55.3717 41.0842C55.3785 41.0158 55.3777 40.9469 55.3695 40.8787C55.3212 40.704 55.4952 40.3896 55.2137 40.3787C54.9483 40.3685 54.9368 40.6737 54.9275 40.8996C54.9196 40.9547 54.9201 41.0107 54.9289 41.0657C54.9891 41.2833 54.7578 41.6892 55.1567 41.679C55.5455 41.669 55.2851 41.2592 55.3717 41.0842Z" fill="#197E9F"/>
<path d="M67.9508 48.0897C67.2186 47.9793 66.3511 48.1281 65.4613 47.958C64.9623 47.8626 64.302 48.0855 63.7065 48.0856C63.5307 48.0857 63.2964 48.15 63.2748 47.8654C63.2586 47.6516 63.1989 47.3995 63.5494 47.3655C63.8044 47.3407 63.7409 47.1268 63.742 46.9714C63.7469 46.2417 63.757 45.5116 63.7365 44.7824C63.7273 44.4583 63.8478 44.3701 64.1585 44.3645C64.4762 44.3589 64.5794 44.4497 64.5683 44.7742C64.544 45.4844 64.5569 46.1961 64.5661 46.907C64.5678 47.0395 64.4833 47.2601 64.6822 47.2828C64.915 47.3093 64.9865 47.0898 64.9939 46.8977C65.0104 46.4679 65.0057 46.0373 65.008 45.6071C65.0095 45.3264 65.0262 45.0443 65.0032 44.7655C64.9747 44.4201 65.1531 44.3782 65.4429 44.365C65.77 44.3501 65.8085 44.4979 65.8029 44.7657C65.7888 45.4389 65.8119 46.113 65.7935 46.7859C65.7758 47.4319 66.2237 47.3435 66.6388 47.3857C67.1331 47.4359 67.2001 47.1875 67.1727 46.7909C67.1496 46.4557 67.1767 46.1172 67.1632 45.7809C67.1521 45.5031 67.2431 45.3644 67.5464 45.3701C67.8332 45.3756 67.9581 45.4945 67.9519 45.7771C67.9447 46.1137 67.9486 46.4506 67.9494 46.7874C67.9502 47.0808 67.8773 47.38 68.3678 47.3903C68.8481 47.4003 68.8136 47.1308 68.8059 46.8194C68.7975 46.4828 68.8165 46.1452 68.7988 45.8093C68.7834 45.5173 68.8471 45.3584 69.1921 45.3649C69.5388 45.3715 69.5939 45.5492 69.5865 45.831C69.5761 46.2237 69.5873 46.6169 69.583 47.0098C69.5807 47.2206 69.618 47.3809 69.8844 47.3738C70.1433 47.3669 70.189 47.2014 70.19 46.9969C70.192 46.5853 70.2026 46.1732 70.1876 45.7621C70.1768 45.4649 70.3078 45.3739 70.5905 45.3688C70.8822 45.3636 71.0003 45.4725 70.9937 45.7603C70.9834 46.2091 71.0091 46.6593 70.9859 47.1072C70.9511 47.7787 70.6194 48.0824 69.9455 48.0885C69.3258 48.0941 68.7059 48.0897 67.9508 48.0897Z" fill="#197E9F"/>
<path d="M67.8027 8.51332C67.5669 7.96213 67.9498 7.85897 68.4619 7.76387C71.4071 7.21696 74.3488 6.65209 77.2872 6.06927C77.6688 5.99359 77.7188 6.098 77.739 6.43691C77.8007 7.47073 77.8195 7.48728 76.8212 7.68303C73.9551 8.24502 71.0851 8.78747 68.219 9.34958C67.8814 9.41579 67.7666 9.31895 67.8005 8.99152C67.8139 8.86216 67.8027 8.73026 67.8027 8.51332Z" fill="#197E9F"/>
<path d="M77.9517 48.0886C77.501 48.0884 77.0488 48.0668 76.5998 48.0952C76.2388 48.1181 76.139 47.9725 76.16 47.64C76.1813 47.3046 76.1679 46.9665 76.157 46.6299C76.1532 46.5137 76.2158 46.3282 76.0277 46.3148C75.8278 46.3004 75.8049 46.4877 75.8 46.6337C75.7881 46.9888 75.7803 47.3452 75.7966 47.6999C75.8099 47.9921 75.6969 48.0966 75.4045 48.0927C74.5406 48.081 73.6765 48.0903 72.8124 48.09C72.6435 48.09 72.4848 48.1075 72.4477 47.857C72.2978 46.8425 73.0541 45.7353 74.0264 45.5988C74.2162 45.5722 74.5012 45.4143 74.5668 45.7799C74.6216 46.0851 74.5421 46.2865 74.1655 46.2735C74.0518 46.2724 73.9396 46.3003 73.8397 46.3546C73.7398 46.4088 73.6554 46.4875 73.5946 46.5833C73.4507 46.7837 73.2693 47.0138 73.3577 47.243C73.4554 47.4962 73.7522 47.3383 73.9594 47.3715C74.053 47.3801 74.147 47.3814 74.2408 47.3753C75.1178 47.3751 74.9928 47.4199 75.0148 46.6319C75.0247 46.4302 75.0793 46.2333 75.1749 46.0554C75.2705 45.8774 75.4045 45.7229 75.5673 45.6029C75.7302 45.483 75.9177 45.4007 76.1164 45.3619C76.315 45.3231 76.5199 45.3289 76.716 45.3787C76.9449 45.4332 76.9454 45.5787 76.9451 45.7571C76.9444 46.1499 76.9818 46.5446 76.9547 46.9352C76.918 47.4655 77.2789 47.3534 77.5857 47.3806C77.9844 47.416 77.9822 47.2069 77.9645 46.9C77.913 46.004 78.3 45.4322 78.9804 45.3357C79.7817 45.2221 80.34 45.689 80.4142 46.5347C80.5016 47.5322 80.0755 48.0759 79.1914 48.0878C78.7783 48.0933 78.365 48.0887 77.9517 48.0886ZM79.6486 46.7415C79.6274 46.4122 79.6623 46.0079 79.1838 46.0117C78.7491 46.0153 78.7419 46.4019 78.7363 46.7124C78.7305 47.0322 78.765 47.3941 79.2064 47.3829C79.5946 47.3731 79.6627 47.0692 79.6486 46.7415Z" fill="#197E9F"/>
<path d="M61.2568 41.3608C61.2623 42.4259 61.2623 42.4258 60.1684 42.432C60 42.4329 59.8311 42.4275 59.6632 42.4375C59.4254 42.4516 59.322 42.3546 59.3317 42.1118C59.3401 41.9005 59.3129 41.6844 59.6289 41.7001C59.685 41.7003 59.7411 41.696 59.7965 41.6872C60.038 41.6602 60.4058 41.8502 60.478 41.5108C60.5569 41.1396 60.6744 40.6763 60.2272 40.4046C59.9609 40.2427 60.1015 40.0516 60.145 39.8672C60.2009 39.6299 60.3908 39.6819 60.5546 39.7088C60.7437 39.7279 60.9192 39.8157 61.0477 39.9553C61.1762 40.095 61.2488 40.2768 61.2517 40.4663C61.278 40.7623 61.2568 41.0625 61.2568 41.3608Z" fill="#197E9F"/>
<path d="M59.2112 44.5976C59.2112 44.6347 59.2116 44.6718 59.2112 44.7089C59.2164 44.7515 59.2095 44.7947 59.1912 44.8335C59.173 44.8724 59.1442 44.9053 59.108 44.9286C59.0719 44.9519 59.0299 44.9646 58.9869 44.9652C58.9439 44.9658 58.9016 44.9544 58.8648 44.9321C58.4992 44.6849 57.9689 45.2905 57.7022 44.6899C57.6864 44.6172 57.6847 44.5422 57.6972 44.4688C57.6982 44.1935 57.9842 44.1177 58.0707 44.2154C58.3924 44.5787 59.0875 43.7621 59.2112 44.5976Z" fill="#197E9F"/>
<path d="M79.1918 44.9395C78.9138 44.9964 78.7977 44.8943 78.8083 44.5917C78.8174 44.3281 78.8646 44.184 79.1762 44.1897C79.4699 44.1951 79.6174 44.2633 79.6152 44.5918C79.613 44.9055 79.4607 44.9714 79.1918 44.9395Z" fill="#197E9F"/>
<path d="M57.3655 38.9311C57.3576 38.6872 57.3332 38.4822 57.6587 38.485C57.9217 38.4872 58.0354 38.5775 58.0247 38.8439C58.0153 39.0763 58.041 39.3006 57.6929 39.294C57.4069 39.2885 57.3378 39.1412 57.3655 38.9311Z" fill="#197E9F"/>
<path d="M74.8878 48.871C74.9191 49.1595 74.7948 49.2764 74.5047 49.2769C74.1847 49.2773 74.0916 49.1361 74.0996 48.834C74.1078 48.5234 74.2774 48.4771 74.5315 48.465C74.8443 48.4502 74.9239 48.6062 74.8878 48.871Z" fill="#197E9F"/>
<path d="M58.231 38.9052C58.2108 38.6633 58.2258 38.4836 58.5352 38.4853C58.8145 38.4868 58.888 38.6122 58.8796 38.8633C58.8714 39.105 58.8692 39.307 58.531 39.2976C58.2243 39.2891 58.2073 39.1122 58.231 38.9052Z" fill="#197E9F"/>
<path d="M73.2073 48.8792C73.178 48.6241 73.2707 48.461 73.5689 48.4714C73.8358 48.4806 73.9052 48.6366 73.8985 48.8757C73.8918 49.1143 73.8777 49.328 73.5602 49.3325C73.2498 49.3368 73.1967 49.1404 73.2073 48.8792Z" fill="#197E9F"/>
</g>
<defs>
<clipPath id="clip0_292_135">
<rect width="131" height="50" fill="white"/>
</clipPath>
</defs>
</svg>
