<svg width="37" height="39" viewBox="0 0 37 39" fill="none" xmlns="http://www.w3.org/2000/svg">
<path d="M30.0607 15.4377C31.1138 16.0291 32.1578 16.6296 33.0543 17.4578C35.3933 19.6187 36.7408 22.2649 36.9643 25.4494C37.2391 29.3645 35.9046 32.6626 33.0087 35.2969C30.8703 37.2698 28.0633 38.3583 25.1539 38.3428C20.3946 38.3833 15.635 38.3852 10.8752 38.3485C8.72435 38.3321 6.5806 38.1379 4.52088 37.4359C3.66297 37.1712 2.86845 36.7334 2.18639 36.1496C1.75538 35.7799 1.41728 35.3142 1.19936 34.7899C0.981434 34.2656 0.889786 33.6974 0.931814 33.1312C0.938338 33.0062 0.92938 32.8804 0.927614 32.7549C1.21152 31.353 1.79009 30.0274 2.62498 28.866C4.92834 25.5643 7.90012 22.9386 11.1117 20.5587C12.2822 19.6913 13.5181 18.9222 14.7268 18.112L18.4941 16.1109C18.6268 16.0665 18.7636 16.0315 18.8917 15.9765C21.0892 15.0323 23.3327 14.2867 25.7704 14.3706C26.1412 14.4211 26.5122 14.47 26.8828 14.5223C27.9851 14.6782 29.0236 15.0557 30.0607 15.4377Z" fill="#0C7C9D"/>
<path d="M14.7267 18.112C12.4242 16.0207 11.2459 13.4142 11.3326 10.3119C11.4039 7.70098 12.4985 5.22266 14.3804 3.41145C16.2623 1.60023 18.7808 0.601258 21.3925 0.62997C21.5492 0.630518 21.7059 0.626992 21.8626 0.625366C24.0391 0.772026 26.1133 1.60462 27.7871 3.00361C31.3231 5.9672 32.3417 11.2196 30.1447 15.2697C30.1149 15.3247 30.0886 15.3816 30.0606 15.4377C29.0235 15.0557 27.985 14.6782 26.8827 14.5224C26.5122 14.47 26.1411 14.4211 25.7705 14.3706C26.057 13.8846 26.2984 13.3734 26.4917 12.8434C26.6074 12.5207 26.5249 12.3986 26.1981 12.3261C22.8471 11.5826 19.4978 10.8312 16.1502 10.0719C15.8486 10.0036 15.7294 10.0871 15.6874 10.3919C15.5515 11.3102 15.6449 12.2478 15.9594 13.1211C16.4343 14.4306 17.3237 15.3897 18.494 16.1109L14.7267 18.112ZM16.1179 7.96689C16.1153 8.11239 16.1418 8.25695 16.1957 8.39213C16.2495 8.52731 16.3298 8.6504 16.4318 8.75424C16.5337 8.85808 16.6553 8.94059 16.7895 8.99694C16.9236 9.05329 17.0677 9.08237 17.2132 9.08248C17.3626 9.08481 17.5109 9.05747 17.6496 9.00205C17.7883 8.94663 17.9146 8.86423 18.0213 8.75962C18.1279 8.65501 18.2127 8.53027 18.2707 8.39265C18.3288 8.25502 18.3589 8.10724 18.3595 7.95787C18.3595 7.81222 18.3308 7.668 18.275 7.53347C18.2192 7.39894 18.1374 7.27673 18.0343 7.17385C17.9312 7.07098 17.8088 6.98946 17.6742 6.93395C17.5395 6.87845 17.3952 6.85005 17.2496 6.8504C17.1004 6.84326 16.9513 6.86714 16.8118 6.92052C16.6723 6.97391 16.5453 7.05563 16.439 7.16055C16.3327 7.26546 16.2492 7.39128 16.1939 7.53007C16.1387 7.66886 16.1128 7.81759 16.1179 7.96689ZM26.1055 10.9905C26.2506 10.9957 26.3953 10.9715 26.5308 10.9193C26.6663 10.8672 26.7899 10.7882 26.8941 10.687C26.9983 10.5859 27.081 10.4648 27.1372 10.3309C27.1934 10.197 27.222 10.0531 27.2211 9.90789C27.2193 9.6067 27.0984 9.31846 26.8849 9.10604C26.6714 8.89361 26.3825 8.77423 26.0813 8.77394C25.7879 8.776 25.507 8.89373 25.2998 9.10156C25.0925 9.30939 24.9756 9.59056 24.9744 9.88406C24.9679 10.0332 24.9929 10.182 25.0478 10.3209C25.1027 10.4597 25.1862 10.5854 25.2929 10.6898C25.3996 10.7942 25.5272 10.8749 25.6672 10.9268C25.8072 10.9786 25.9565 11.0003 26.1055 10.9905Z" fill="#EF5371"/>
</svg>
