<svg width="198" height="150" viewBox="0 0 198 150" fill="none" xmlns="http://www.w3.org/2000/svg">
<g opacity="0.1">
<mask id="mask0_702_1061" style="mask-type:alpha" maskUnits="userSpaceOnUse" x="0" y="0" width="198" height="150">
<rect width="197.203" height="150" fill="#D9D9D9"/>
</mask>
<g mask="url(#mask0_702_1061)">
<path d="M159.54 194.58C185.056 171.309 198.114 142.306 197.154 107.786C196.364 78.7329 184.233 51.1557 163.377 31.0017C142.522 10.8477 114.613 -0.268263 85.6695 0.0512227C83.9333 0.0573281 82.1967 0.0180855 80.4603 0C56.3395 1.63194 33.3541 10.8965 14.8044 26.4636C-24.3813 59.4405 -35.6696 117.886 -11.3227 162.953C-10.9919 163.565 -10.7001 164.198 -10.3903 164.822C1.10303 160.571 12.6116 156.371 24.8272 154.637C28.9334 154.054 33.0453 153.51 37.1527 152.948C33.9774 147.54 31.302 141.852 29.1601 135.955C27.8785 132.364 28.7928 131.005 32.4136 130.198C69.5499 121.925 106.667 113.564 143.764 105.115C147.107 104.355 148.428 105.284 148.893 108.676C150.4 118.893 149.364 129.327 145.879 139.045C140.617 153.616 130.76 164.288 117.791 172.313L159.54 194.58ZM144.123 81.6917C144.151 83.3108 143.858 84.9193 143.261 86.4235C142.664 87.9277 141.775 89.2974 140.645 90.4528C139.515 91.6083 138.167 92.5264 136.68 93.1534C135.194 93.7805 133.597 94.1041 131.985 94.1053C130.329 94.1312 128.686 93.827 127.148 93.2103C125.611 92.5936 124.211 91.6767 123.03 90.5126C121.848 89.3486 120.908 87.9607 120.265 86.4292C119.622 84.8978 119.287 83.2534 119.282 81.5913C119.281 79.9707 119.6 78.3659 120.218 76.8689C120.836 75.3719 121.743 74.0121 122.885 72.8673C124.028 71.7226 125.384 70.8155 126.876 70.1979C128.368 69.5802 129.967 69.2643 131.581 69.2681C133.235 69.1887 134.887 69.4544 136.433 70.0484C137.979 70.6424 139.386 71.5518 140.564 72.7192C141.743 73.8867 142.668 75.2868 143.28 76.8311C143.892 78.3754 144.179 80.0304 144.123 81.6917ZM33.4401 115.337C31.8319 115.394 30.2287 115.125 28.7268 114.545C27.225 113.964 25.8555 113.085 24.7007 111.96C23.5459 110.834 22.6296 109.486 22.0068 107.996C21.384 106.507 21.0676 104.906 21.0767 103.29C21.0971 99.9385 22.4365 96.7312 24.8027 94.3674C27.169 92.0037 30.37 90.6753 33.7078 90.672C36.9603 90.695 40.0726 92.0049 42.3692 94.3175C44.6659 96.6301 45.9617 99.7588 45.9754 103.025C46.0473 104.684 45.7701 106.341 45.1619 107.885C44.5536 109.43 43.6279 110.829 42.4453 111.991C41.2626 113.152 39.8493 114.051 38.2977 114.627C36.7461 115.204 35.091 115.445 33.4401 115.337Z" fill="#EF5371"/>
</g>
</g>
</svg>
