<svg width="53" height="47" viewBox="0 0 53 47" fill="none" xmlns="http://www.w3.org/2000/svg">
<path d="M8 16.2172C8 11.2525 11.6424 7.03952 16.555 6.32213L41.555 2.67133C47.589 1.79017 53 6.46836 53 12.5664V35.4336C53 41.5316 47.589 46.2098 41.555 45.3287L16.555 41.6779C11.6424 40.9605 8 36.7475 8 31.7828V16.2172Z" fill="url(#paint0_linear_605_2941)"/>
<path d="M17.5003 28.5125C16.4941 28.5125 15.5462 28.075 14.8753 27.3125L12.6878 24.8125C12.6441 24.7625 12.4691 24.7 12.3962 24.6875H11.667C5.58574 24.6875 1.82324 23.275 1.82324 16.25V10C1.82324 4.475 5.22116 1.5625 11.667 1.5625H23.3337C29.7795 1.5625 33.1774 4.475 33.1774 10V16.25C33.1774 21.775 29.7795 24.6875 23.3337 24.6875H22.6045C22.4878 24.6875 22.3857 24.7375 22.3128 24.8125L20.1253 27.3125C19.4545 28.075 18.5066 28.5125 17.5003 28.5125ZM11.667 3.4375C6.44616 3.4375 4.01074 5.525 4.01074 10V16.25C4.01074 21.9 6.27116 22.8125 11.667 22.8125H12.3962C13.1399 22.8125 13.9857 23.175 14.4378 23.6875L16.6253 26.1875C17.1357 26.7625 17.8649 26.7625 18.3753 26.1875L20.5628 23.6875C21.0441 23.1375 21.8024 22.8125 22.6045 22.8125H23.3337C28.5545 22.8125 30.9899 20.725 30.9899 16.25V10C30.9899 5.525 28.5545 3.4375 23.3337 3.4375H11.667Z" fill="#197E9F"/>
<path d="M24.7913 10.9375H10.208C9.61009 10.9375 9.11426 10.5125 9.11426 10C9.11426 9.4875 9.61009 9.0625 10.208 9.0625H24.7913C25.3893 9.0625 25.8851 9.4875 25.8851 10C25.8851 10.5125 25.3893 10.9375 24.7913 10.9375Z" fill="#197E9F"/>
<path d="M18.958 17.1875H10.208C9.61009 17.1875 9.11426 16.7625 9.11426 16.25C9.11426 15.7375 9.61009 15.3125 10.208 15.3125H18.958C19.5559 15.3125 20.0518 15.7375 20.0518 16.25C20.0518 16.7625 19.5559 17.1875 18.958 17.1875Z" fill="#197E9F"/>
<defs>
<linearGradient id="paint0_linear_605_2941" x1="53" y1="24" x2="8" y2="24" gradientUnits="userSpaceOnUse">
<stop stop-color="#C8E9F4"/>
<stop offset="1" stop-color="white"/>
</linearGradient>
</defs>
</svg>
