<svg width="49" height="48" viewBox="0 0 49 48" fill="none" xmlns="http://www.w3.org/2000/svg">
<path d="M24.4998 28.3399C20.2398 28.3399 16.7598 24.8799 16.7598 20.5999C16.7598 16.3199 20.2398 12.8799 24.4998 12.8799C28.7598 12.8799 32.2398 16.3399 32.2398 20.6199C32.2398 24.8999 28.7598 28.3399 24.4998 28.3399ZM24.4998 15.8799C21.8998 15.8799 19.7598 17.9999 19.7598 20.6199C19.7598 23.2399 21.8798 25.3599 24.4998 25.3599C27.1198 25.3599 29.2398 23.2399 29.2398 20.6199C29.2398 17.9999 27.0998 15.8799 24.4998 15.8799Z" fill="#0C7C9D"/>
<path d="M24.4994 45.52C21.5394 45.52 18.5594 44.4 16.2394 42.18C10.3394 36.5 3.81938 27.44 6.27938 16.66C8.49938 6.88 17.0394 2.5 24.4994 2.5C24.4994 2.5 24.4994 2.5 24.5194 2.5C31.9794 2.5 40.5194 6.88 42.7394 16.68C45.1794 27.46 38.6594 36.5 32.7594 42.18C30.4394 44.4 27.4594 45.52 24.4994 45.52ZM24.4994 5.5C18.6794 5.5 11.1994 8.6 9.21938 17.32C7.05938 26.74 12.9794 34.86 18.3394 40C21.7994 43.34 27.2194 43.34 30.6794 40C36.0194 34.86 41.9394 26.74 39.8194 17.32C37.8194 8.6 30.3194 5.5 24.4994 5.5Z" fill="#0C7C9D"/>
</svg>
