<svg width="30" height="31" viewBox="0 0 30 31" fill="none" xmlns="http://www.w3.org/2000/svg">
<path d="M21.25 27.0625H8.75C4.1875 27.0625 1.5625 24.4375 1.5625 19.875V11.125C1.5625 6.5625 4.1875 3.9375 8.75 3.9375H21.25C25.8125 3.9375 28.4375 6.5625 28.4375 11.125V19.875C28.4375 24.4375 25.8125 27.0625 21.25 27.0625ZM8.75 5.8125C5.175 5.8125 3.4375 7.55 3.4375 11.125V19.875C3.4375 23.45 5.175 25.1875 8.75 25.1875H21.25C24.825 25.1875 26.5625 23.45 26.5625 19.875V11.125C26.5625 7.55 24.825 5.8125 21.25 5.8125H8.75Z" fill="#197E9F"/>
<path d="M15 16.5875C13.95 16.5875 12.8875 16.2625 12.075 15.6L8.16246 12.475C7.76247 12.15 7.68747 11.5625 8.01247 11.1625C8.33747 10.7625 8.92497 10.6875 9.32497 11.0125L13.2375 14.1375C14.1875 14.9 15.8 14.9 16.75 14.1375L20.6625 11.0125C21.0625 10.6875 21.6625 10.75 21.975 11.1625C22.3 11.5625 22.2375 12.1625 21.825 12.475L17.9125 15.6C17.1125 16.2625 16.05 16.5875 15 16.5875Z" fill="#197E9F"/>
</svg>
