<svg width="25" height="25" viewBox="0 0 25 25" fill="none" xmlns="http://www.w3.org/2000/svg">
<path d="M15.5 23.25H9.5C4.07 23.25 1.75 20.93 1.75 15.5V9.5C1.75 4.07 4.07 1.75 9.5 1.75H15.5C20.93 1.75 23.25 4.07 23.25 9.5V15.5C23.25 20.93 20.93 23.25 15.5 23.25ZM9.5 3.25C4.89 3.25 3.25 4.89 3.25 9.5V15.5C3.25 20.11 4.89 21.75 9.5 21.75H15.5C20.11 21.75 21.75 20.11 21.75 15.5V9.5C21.75 4.89 20.11 3.25 15.5 3.25H9.5Z" fill="#197E9F"/>
<path d="M11.2598 16.87C10.8398 16.87 10.4498 16.77 10.0998 16.57C9.29984 16.11 8.83984 15.17 8.83984 13.98V11.02C8.83984 9.83999 9.29984 8.88999 10.0998 8.42999C10.8998 7.96999 11.9398 8.03999 12.9698 8.63999L15.5398 10.12C16.5598 10.71 17.1498 11.58 17.1498 12.5C17.1498 13.42 16.5598 14.29 15.5398 14.88L12.9698 16.36C12.3898 16.7 11.7998 16.87 11.2598 16.87ZM11.2698 9.62999C11.1098 9.62999 10.9698 9.65999 10.8598 9.72999C10.5398 9.91999 10.3498 10.39 10.3498 11.02V13.98C10.3498 14.61 10.5298 15.08 10.8598 15.27C11.1798 15.46 11.6798 15.38 12.2298 15.06L14.7998 13.58C15.3498 13.26 15.6598 12.87 15.6598 12.5C15.6598 12.13 15.3498 11.73 14.7998 11.42L12.2298 9.93999C11.8698 9.72999 11.5398 9.62999 11.2698 9.62999Z" fill="#197E9F"/>
</svg>
