<svg width="54" height="46" viewBox="0 0 54 46" fill="none" xmlns="http://www.w3.org/2000/svg">
<path d="M9 15.2172C9 10.2525 12.6424 6.03952 17.555 5.32213L42.555 1.67133C48.589 0.790173 54 5.46836 54 11.5664V34.4336C54 40.5316 48.589 45.2098 42.555 44.3287L17.555 40.6779C12.6424 39.9605 9 35.7475 9 30.7828V15.2172Z" fill="url(#paint0_linear_605_2953)"/>
<path fill-rule="evenodd" clip-rule="evenodd" d="M3.6306 17.0013C10.2572 11.676 15.9048 9.04966 21.3175 9.00284C26.7289 8.95603 32.1336 11.488 38.2697 17.0012C32.1336 22.5145 26.7289 25.0464 21.3174 24.9997C15.9048 24.9529 10.2572 22.3265 3.6306 17.0013ZM1.72033 18.0259C1.52752 17.9743 1.34822 17.8647 1.21085 17.6996C0.85758 17.2751 0.915349 16.6446 1.33987 16.2913C8.53416 10.3047 14.9249 7.05806 21.3002 7.00291C27.6979 6.94757 33.8286 10.1058 40.4965 16.3289C40.9003 16.7057 40.9221 17.3385 40.5453 17.7423C40.4288 17.8671 40.2879 17.9554 40.1368 18.0067C33.6077 24.0094 27.5827 27.0539 21.3002 26.9996C15.0374 26.9454 8.7599 23.8116 1.72033 18.0259Z" fill="#197E9F"/>
<path d="M1.79395 11.816C16.5647 -1.04488 27.347 -1.49713 40.98 11.816" stroke="#197E9F" stroke-width="2" stroke-linecap="round"/>
<circle cx="20.4076" cy="16.7242" r="4.47591" stroke="#197E9F" stroke-width="2"/>
<defs>
<linearGradient id="paint0_linear_605_2953" x1="54" y1="23" x2="9" y2="23" gradientUnits="userSpaceOnUse">
<stop stop-color="#C8E9F4"/>
<stop offset="1" stop-color="white"/>
</linearGradient>
</defs>
</svg>
